<svg xmlns="http://www.w3.org/2000/svg" viewBox="0 0 100 120" role="img" aria-label="USA FC crest">
  <!-- Original crest in the spirit of US soccer badges (not the official USMNT mark) -->
  <path d="M50 1 L97 13 V62 C97 95 76 112 50 119 C24 112 3 95 3 62 V13 Z" fill="#0A3161"/>
  <path d="M50 5 L93 16 V62 C93 92 74 107 50 114 C26 107 7 92 7 62 V16 Z" fill="#ffffff"/>
  <clipPath id="inner">
    <path d="M50 8 L90 18 V62 C90 89 72 104 50 111 C28 104 10 89 10 62 V18 Z"/>
  </clipPath>
  <g clip-path="url(#inner)">
    <rect x="10" y="8" width="80" height="103" fill="#ffffff"/>
    <rect x="10" y="8" width="80" height="30" fill="#0A3161"/>
    <g fill="#ffffff">
      <path d="M30 18 l2.4 7.4 7.8 0 -6.3 4.6 2.4 7.4 -6.3 -4.6 -6.3 4.6 2.4 -7.4 -6.3 -4.6 7.8 0 Z" transform="scale(0.62) translate(18.5 11)"/>
      <path d="M30 18 l2.4 7.4 7.8 0 -6.3 4.6 2.4 7.4 -6.3 -4.6 -6.3 4.6 2.4 -7.4 -6.3 -4.6 7.8 0 Z" transform="scale(0.62) translate(50.6 11)"/>
      <path d="M30 18 l2.4 7.4 7.8 0 -6.3 4.6 2.4 7.4 -6.3 -4.6 -6.3 4.6 2.4 -7.4 -6.3 -4.6 7.8 0 Z" transform="scale(0.62) translate(82.7 11)"/>
    </g>
    <text x="50" y="55" text-anchor="middle" font-family="Arial, Helvetica, sans-serif" font-weight="900" font-size="16.5" letter-spacing="0.5" fill="#0A3161">USAFC</text>
    <g>
      <rect x="10" y="62" width="16" height="49" fill="#B31942"/>
      <rect x="26" y="62" width="16" height="49" fill="#ffffff"/>
      <rect x="42" y="62" width="16" height="49" fill="#B31942"/>
      <rect x="58" y="62" width="16" height="49" fill="#ffffff"/>
      <rect x="74" y="62" width="16" height="49" fill="#B31942"/>
    </g>
  </g>
</svg>
